<mxfile host="app.diagrams.net" modified="2022-04-23T18:59:34.992Z" agent="5.0 (Windows NT 10.0; Win64; x64) AppleWebKit/537.36 (KHTML, like Gecko) Chrome/100.0.4896.127 Safari/537.36" etag="SHz2TCadhq1ivz-k4NTe" version="17.4.6" type="github">
  <diagram id="eGErGCEXapyZBiPK6mDA" name="Page-1">
    <mxGraphModel dx="689" dy="739" grid="1" gridSize="10" guides="1" tooltips="1" connect="1" arrows="1" fold="1" page="1" pageScale="1" pageWidth="850" pageHeight="1100" math="0" shadow="0">
      <root>
        <mxCell id="0" />
        <mxCell id="1" parent="0" />
        <mxCell id="-EqnMdIgHedVSP7JfHqS-1" value="&lt;font style=&quot;font-size: 40px&quot;&gt;PROFESOR de&amp;nbsp;&lt;br&gt;SPORT&lt;br&gt;MENTAL&lt;br&gt;&lt;/font&gt;" style="text;html=1;align=center;verticalAlign=middle;resizable=0;points=[];autosize=1;strokeColor=none;fillColor=none;" vertex="1" parent="1">
          <mxGeometry x="150" y="160" width="310" height="80" as="geometry" />
        </mxCell>
        <mxCell id="-EqnMdIgHedVSP7JfHqS-2" value="" style="endArrow=none;html=1;rounded=0;fontSize=40;strokeWidth=2;" edge="1" parent="1">
          <mxGeometry width="50" height="50" relative="1" as="geometry">
            <mxPoint x="150" y="280" as="sourcePoint" />
            <mxPoint x="440" y="280" as="targetPoint" />
          </mxGeometry>
        </mxCell>
        <mxCell id="-EqnMdIgHedVSP7JfHqS-3" value="" style="endArrow=none;html=1;rounded=0;fontSize=40;strokeWidth=2;" edge="1" parent="1">
          <mxGeometry width="50" height="50" relative="1" as="geometry">
            <mxPoint x="150" y="120" as="sourcePoint" />
            <mxPoint x="440" y="120" as="targetPoint" />
          </mxGeometry>
        </mxCell>
      </root>
    </mxGraphModel>
  </diagram>
</mxfile>
